HIERARCHY
ROOT Hips
{
  OFFSET -4.35178 90.3298 111.633
  CHANNELS 6 Xposition Yposition Zposition Zrotation Xrotation Yrotation
  JOINT LeftUpLeg
  {
    OFFSET 0.103456 1.85784 10.5485
    CHANNELS 6 Xposition Yposition Zposition Zrotation Xrotation Yrotation
    JOINT LeftLeg
    {
      OFFSET 43.5 -4.2e-05 0
      CHANNELS 6 Xposition Yposition Zposition Zrotation Xrotation Yrotation
      JOINT LeftFoot
      {
        OFFSET 42.3722 1.9e-05 0
        CHANNELS 6 Xposition Yposition Zposition Zrotation Xrotation Yrotation
        JOINT LeftToe
        {
          OFFSET 17.3 0 0
          CHANNELS 6 Xposition Yposition Zposition Zrotation Xrotation Yrotation
          End Site
          {
            OFFSET 0 0 0
          }
        }
      }
    }
  }
  JOINT RightUpLeg
  {
    OFFSET 0.103456 1.85782 -10.5485
    CHANNELS 6 Xposition Yposition Zposition Zrotation Xrotation Yrotation
    JOINT RightLeg
    {
      OFFSET 43.5 -2.7e-05 0
      CHANNELS 6 Xposition Yposition Zposition Zrotation Xrotation Yrotation
      JOINT RightFoot
      {
        OFFSET 42.3723 0 0
        CHANNELS 6 Xposition Yposition Zposition Zrotation Xrotation Yrotation
        JOINT RightToe
        {
          OFFSET 17.3 0 1.7e-05
          CHANNELS 6 Xposition Yposition Zposition Zrotation Xrotation Yrotation
          End Site
          {
            OFFSET 0 0 0
          }
        }
      }
    }
  }
  JOINT Spine
  {
    OFFSET 6.90197 -2.60373 0
    CHANNELS 6 Xposition Yposition Zposition Zrotation Xrotation Yrotation
    JOINT Spine1
    {
      OFFSET 12.5881 0 0
      CHANNELS 6 Xposition Yposition Zposition Zrotation Xrotation Yrotation
      JOINT Spine2
      {
        OFFSET 12.3432 -1.8e-05 0
        CHANNELS 6 Xposition Yposition Zposition Zrotation Xrotation Yrotation
        JOINT Neck
        {
          OFFSET 25.8329 2.3e-05 0
          CHANNELS 6 Xposition Yposition Zposition Zrotation Xrotation Yrotation
          JOINT Head
          {
            OFFSET 11.7666 0 0
            CHANNELS 6 Xposition Yposition Zposition Zrotation Xrotation Yrotation
            End Site
            {
              OFFSET 0 0 0
            }
          }
        }
        JOINT LeftShoulder
        {
          OFFSET 19.7459 -1.48035 6.0001
          CHANNELS 6 Xposition Yposition Zposition Zrotation Xrotation Yrotation
          JOINT LeftArm
          {
            OFFSET 11.2841 1.8e-05 -2e-05
            CHANNELS 6 Xposition Yposition Zposition Zrotation Xrotation Yrotation
            JOINT LeftForeArm
            {
              OFFSET 33 -1.3e-05 1.9e-05
              CHANNELS 6 Xposition Yposition Zposition Zrotation Xrotation Yrotation
              JOINT LeftHand
              {
                OFFSET 25.2 3.2e-05 1.1e-05
                CHANNELS 6 Xposition Yposition Zposition Zrotation Xrotation Yrotation
                End Site
                {
                  OFFSET 0 0 0
                }
              }
            }
          }
        }
        JOINT RightShoulder
        {
          OFFSET 19.7461 -1.48036 -6.00008
          CHANNELS 6 Xposition Yposition Zposition Zrotation Xrotation Yrotation
          JOINT RightArm
          {
            OFFSET 11.2841 0 0
            CHANNELS 6 Xposition Yposition Zposition Zrotation Xrotation Yrotation
            JOINT RightForeArm
            {
              OFFSET 33.0001 1.6e-05 0
              CHANNELS 6 Xposition Yposition Zposition Zrotation Xrotation Yrotation
              JOINT RightHand
              {
                OFFSET 25.1998 0.000123 0.000432
                CHANNELS 6 Xposition Yposition Zposition Zrotation Xrotation Yrotation
                End Site
                {
                  OFFSET 0 0 0
                }
              }
            }
          }
        }
      }
    }
  }
}
MOTION
Frames:	11
Frame Time:	0.0333333
8.31445 139.708 138.805 73.4093 -67.7954 -11.5556 0.103456 1.85784 10.5485 20.742 21.3951 -179.723 43.5 -4.2e-05 1e-05 -26.4497 -12.9361 -9.75226 42.3722 1.9e-05 -2.84217e-14 43.1473 5.3174 9.80037 17.3 1.42109e-14 3e-06 21.4546 -1e-06 0.003093 0.103456 1.85782 -10.5485 -41.9062 -12.2772 -174.312 43.5 -2.7e-05 4e-06 -77.28 16.2993 -11.3291 42.3723 0 1e-05 92.6046 3.64325 0.352347 17.3 -6e-06 1.7e-05 21.4546 -1.9e-05 -0.003116 6.90197 -2.60373 -3e-06 12.0898 -1.75439 -0.617527 12.5881 1e-05 8e-06 14.2036 -3.45095 -0.803251 12.3432 -1.8e-05 -5e-06 13.9449 -3.28073 -0.572003 25.8329 2.3e-05 7e-06 7.40467 3.81183 -3.18642 11.7666 -8e-06 -6e-06 -32.6572 -10.8383 15.1627 19.7459 -1.48035 6.0001 171.077 7.14047 -108.838 11.2841 1.8e-05 -2e-05 -18.9241 -38.0939 62.1615 33 -1.3e-05 1.9e-05 -92.3695 -0.669177 -5.33165 25.2 3.2e-05 1.1e-05 -45.3159 36.5568 -2.46172 19.7461 -1.48036 -6.00008 -159.488 -7.36383 80.2133 11.2841 2.84217e-14 -1e-06 -0.87343 12.2196 -36.411 33.0001 1.6e-05 -1e-06 -123.328 -9.83049 25.9904 25.1998 0.000123 0.000432 -7.10505 -23.3555 18.4662 
6.95269 140.923 135.964 73.5485 -69.3892 -12.1887 0.103456 1.85784 10.5485 12.9957 17.229 -175.906 43.5 -4.2e-05 1e-05 -40.5677 -9.61644 -11.8403 42.3722 1.9e-05 2.84217e-14 48.0865 8.08598 10.9866 17.3 0 3e-06 21.4546 -1e-06 0.003093 0.103456 1.85782 -10.5485 -39.0137 -11.4889 -173.329 43.5 -2.7e-05 4e-06 -76.166 15.6751 -10.9917 42.3723 0 1e-05 92.9262 4.0648 0.837592 17.3 -6e-06 1.7e-05 21.4546 -1.9e-05 -0.003116 6.90197 -2.60373 -3e-06 12.0969 -1.38956 -0.425922 12.5881 1e-05 8e-06 14.2117 -2.68341 -0.504898 12.3432 -1.8e-05 -5e-06 13.9379 -2.49622 -0.322489 25.8329 2.3e-05 7e-06 7.44116 3.04581 -3.17891 11.7666 -8e-06 -6e-06 -31.6963 -10.9918 14.956 19.7459 -1.48035 6.0001 171.122 6.51845 -107.03 11.2841 1.8e-05 -2e-05 -21.3274 -33.9772 63.2043 33 -1.3e-05 1.9e-05 -91.1905 -1.03031 -5.42599 25.2 3.2e-05 1.1e-05 -47.9407 38.001 -2.26905 19.7461 -1.48036 -6.00008 -159.503 -9.17346 79.249 11.2841 2.84217e-14 -1e-06 -3.74229 10.5095 -38.9018 33.0001 1.6e-05 -1e-06 -121.742 -9.13629 25.9156 25.1998 0.000123 0.000432 -7.4001 -23.4636 18.8137 
5.63597 142.103 133.213 73.0974 -70.386 -13.3101 0.103456 1.85784 10.5485 4.97277 14.7114 -172.677 43.5 -4.2e-05 1e-05 -55.2973 -6.49444 -11.9752 42.3722 1.9e-05 0 52.307 11.4737 11.105 17.3 0 3e-06 21.4546 -1e-06 0.003093 0.103456 1.85782 -10.5485 -35.5384 -10.5773 -172.895 43.5 -2.7e-05 4e-06 -74.4009 14.7281 -10.3649 42.3723 0 1e-05 93.8455 5.07607 1.27533 17.3 -6e-06 1.7e-05 21.4546 -1.9e-05 -0.003116 6.90197 -2.60373 -3e-06 12.0226 -1.05101 -0.166434 12.5881 1e-05 8e-06 14.0568 -1.95491 -0.0672639 12.3432 -1.8e-05 -5e-06 13.7687 -1.74451 0.0688068 25.8329 2.3e-05 7e-06 7.73233 2.0438 -3.07477 11.7666 -8e-06 -6e-06 -30.6137 -10.96 14.5085 19.7459 -1.48035 6.0001 171.952 5.04875 -104.649 11.2841 1.8e-05 -2e-05 -22.566 -29.8531 64.9434 33 -1.3e-05 1.9e-05 -89.308 0.0157967 -5.37662 25.2 3.2e-05 1.1e-05 -50.3148 39.9083 -2.07703 19.7461 -1.48036 -6.00008 -161.423 -10.3431 78.1218 11.2841 2.84217e-14 -1e-06 -7.98577 7.26859 -39.8532 33.0001 1.6e-05 -1e-06 -118.86 -7.56182 25.7749 25.1998 0.000123 0.000432 -5.87394 -23.7381 19.7387 
4.28396 143.36 130.73 72.2749 -70.9178 -14.5756 0.103456 1.85784 10.5485 -3.47152 13.7365 -170.266 43.5 -4.2e-05 1e-05 -70.0024 -5.5455 -9.87925 42.3722 1.9e-05 0 57.2591 15.5979 10.9941 17.3 -2.84217e-14 3e-06 21.4546 -1e-06 0.003093 0.103456 1.85782 -10.5485 -31.8334 -9.74344 -173.477 43.5 -2.7e-05 4e-06 -72.3754 13.195 -8.84836 42.3723 0 1e-05 94.7223 5.7096 1.25898 17.3 -6e-06 1.7e-05 21.4546 -1.9e-05 -0.003116 6.90197 -2.60373 -3e-06 12.0289 -0.804236 0.0549368 12.5881 1e-05 8e-06 14.0639 -1.41548 0.317132 12.3432 -1.8e-05 -5e-06 13.7652 -1.18232 0.4188 25.8329 2.3e-05 7e-06 7.99883 1.36999 -3.16706 11.7666 -8e-06 -6e-06 -29.9549 -10.581 14.5351 19.7459 -1.48035 6.0001 173.022 3.06435 -102.441 11.2841 1.8e-05 -2e-05 -21.8162 -26.0034 67.0042 33 -1.3e-05 1.9e-05 -87.0517 -1.42241 -5.27373 25.2 3.2e-05 1.1e-05 -50.6336 40.2441 -1.74663 19.7461 -1.48036 -6.00008 -162.738 -11.5287 76.9903 11.2841 -5.68434e-14 -1e-06 -11.7077 6.54968 -41.8655 33.0001 1.6e-05 -1e-06 -117.084 -7.37816 25.1478 25.1998 0.000123 0.000432 -5.71469 -22.464 18.9954 
2.46693 144.712 128.313 69.3902 -72.1002 -17.5972 0.103456 1.85784 10.5485 -11.6085 13.3122 -169.142 43.5 -4.2e-05 1e-05 -83.5064 -7.12694 -6.58222 42.3722 1.9e-05 1.42109e-14 63.3491 19.9205 8.85016 17.3 0 3e-06 21.4546 -1e-06 0.003093 0.103456 1.85782 -10.5485 -27.7084 -8.83625 -174.621 43.5 -2.7e-05 4e-06 -70.0504 11.32 -7.49575 42.3723 0 1e-05 95.316 5.90632 1.58189 17.3 -6e-06 1.7e-05 21.4546 -1.9e-05 -0.003116 6.90197 -2.60373 -3e-06 12.0918 -0.36269 0.164066 12.5881 1e-05 8e-06 14.1767 -0.51275 0.435357 12.3432 -1.8e-05 -5e-06 13.8631 -0.272426 0.4807 25.8329 2.3e-05 7e-06 8.02231 0.724229 -3.02755 11.7666 -8e-06 -6e-06 -29.1688 -10.4606 14.6406 19.7459 -1.48035 6.0001 174.186 0.408648 -100.072 11.2841 1.8e-05 -2e-05 -20.5042 -21.994 68.2729 33 -1.3e-05 1.9e-05 -85.5202 -2.29756 -4.99642 25.2 3.2e-05 1.1e-05 -49.7739 39.0369 -0.942768 19.7461 -1.48036 -6.00008 -163.862 -12.4059 76.4894 11.2841 2.84217e-14 -1e-06 -15.532 4.94011 -43.1597 33.0001 1.6e-05 -1e-06 -117.689 -7.54366 24.4678 25.1998 0.000123 0.000432 -6.63097 -21.1204 18.1651 
0.984334 146.6 125.569 67.0642 -71.2202 -20.3309 0.103456 1.85784 10.5485 -19.2767 12.4782 -168.616 43.5 -4.2e-05 1e-05 -93.5644 -9.68692 -2.17263 42.3722 1.9e-05 0 70.6351 21.9845 7.05521 17.3 -2.84217e-14 3e-06 21.4546 -1e-06 0.003093 0.103456 1.85782 -10.5485 -22.0515 -8.69715 -175.739 43.5 -2.7e-05 4e-06 -65.8381 9.73213 -5.51223 42.3723 0 1e-05 95.1801 5.94329 1.04571 17.3 -6e-06 1.7e-05 21.4546 -1.9e-05 -0.003116 6.90197 -2.60373 -3e-06 12.2693 -0.118038 0.471433 12.5881 1e-05 8e-06 14.5227 0.0473051 0.99077 12.3432 -1.8e-05 -5e-06 14.198 0.326057 1.0001 25.8329 2.3e-05 7e-06 7.71787 -0.303029 -2.35901 11.7666 -8e-06 -6e-06 -28.0832 -10.886 14.5649 19.7459 -1.48035 6.0001 174.772 -2.06478 -96.9739 11.2841 1.8e-05 -2e-05 -19.4119 -17.7955 68.005 33 -1.3e-05 1.9e-05 -83.962 -2.08673 -4.59997 25.2 3.2e-05 1.1e-05 -50.244 39.1035 -0.400127 19.7461 -1.48036 -6.00008 -165.485 -12.512 76.3747 11.2841 0 -1e-06 -19.5521 2.84222 -43.4465 33.0001 1.6e-05 -1e-06 -119.303 -7.95278 23.3263 25.1998 0.000123 0.000432 -6.93026 -19.9545 17.7455 
-0.641715 148.44 123.482 64.9242 -71.1322 -22.3101 0.103456 1.85784 10.5485 -27.2391 13.0982 -169.668 43.5 -4.2e-05 1e-05 -100.985 -14.0833 2.12853 42.3722 1.9e-05 0 79.1141 21.0994 4.00567 17.3 2.84217e-14 3e-06 21.4546 -1e-06 0.003093 0.103456 1.85782 -10.5485 -17.6376 -7.92991 -177.358 43.5 -2.7e-05 4e-06 -61.9668 7.80975 -3.67081 42.3723 0 1e-05 93.7802 5.51764 0.400653 17.3 -6e-06 1.7e-05 21.4546 -1.9e-05 -0.003116 6.90197 -2.60373 -3e-06 12.6395 0.23785 0.348388 12.5881 1e-05 8e-06 15.2542 0.736268 0.66356 12.3432 -1.8e-05 -5e-06 14.9209 1.00452 0.630225 25.8329 2.3e-05 7e-06 7.25681 -0.539428 -2.17383 11.7666 -8e-06 -6e-06 -27.5658 -11.2172 15.6224 19.7459 -1.48035 6.0001 175.835 -3.37893 -95.3579 11.2841 1.8e-05 -2e-05 -16.182 -15.4122 67.0321 33 -1.3e-05 1.9e-05 -82.5554 -2.04693 -4.21241 25.2 3.2e-05 1.1e-05 -49.9249 38.7655 0.109287 19.7461 -1.48036 -6.00008 -164.993 -14.0853 77.9376 11.2841 -2.84217e-14 -1e-06 -22.4661 4.58184 -45.2702 33.0001 1.6e-05 -1e-06 -121.406 -9.22775 21.5045 25.1998 0.000123 0.000432 -7.40767 -18.5644 17.0405 
-2.33354 150.747 121.481 62.4154 -70.3015 -24.632 0.103456 1.85784 10.5485 -34.0642 14.1853 -171.685 43.5 -4.2e-05 1e-05 -104.43 -18.1139 6.41082 42.3722 1.9e-05 2.84217e-14 86.1926 17.9687 1.49352 17.3 -2.84217e-14 3e-06 21.4546 -1e-06 0.003093 0.103456 1.85782 -10.5485 -11.9814 -7.48378 -179.328 43.5 -2.7e-05 4e-06 -56.0724 5.77096 -1.15915 42.3723 0 1e-05 91.3289 5.47483 -0.19103 17.3 -6e-06 1.7e-05 21.4546 -1.9e-05 -0.003116 6.90197 -2.60373 -3e-06 13.2346 0.455141 0.41209 12.5881 1e-05 8e-06 16.4378 1.19924 0.733251 12.3432 -1.8e-05 -5e-06 16.0977 1.4888 0.669744 25.8329 2.3e-05 7e-06 6.4419 -1.46182 -1.66824 11.7666 -8e-06 -6e-06 -27.0414 -11.9211 15.8546 19.7459 -1.48035 6.0001 176.647 -4.14929 -94.0474 11.2841 1.8e-05 -2e-05 -12.4816 -14.0009 66.6207 33 -1.3e-05 1.9e-05 -81.0908 -2.39972 -3.82626 25.2 3.2e-05 1.1e-05 -48.6634 38.128 0.54635 19.7461 -1.48036 -6.00008 -165.844 -14.9428 80.1398 11.2841 2.84217e-14 -1e-06 -25.1649 5.46279 -44.4503 33.0001 1.6e-05 -1e-06 -123.547 -10.4172 19.2129 25.1998 0.000123 0.000432 -6.90488 -16.798 16.0304 
-3.94016 153.586 119.301 61.9805 -69.791 -24.7574 0.103456 1.85784 10.5485 -39.7928 15.7482 -173.892 43.5 -4.2e-05 1e-05 -103.691 -20.278 10.0283 42.3722 1.9e-05 -1.42109e-14 90.5551 14.0306 -0.363251 17.3 0 3e-06 21.4546 -1e-06 0.003093 0.103456 1.85782 -10.5485 -5.89145 -6.41672 178.916 43.5 -2.7e-05 4e-06 -47.8258 4.30861 1.86028 42.3723 -2.84217e-14 1e-05 87.4845 5.00612 -1.57872 17.3 -6e-06 1.7e-05 21.4546 -1.9e-05 -0.003116 6.90197 -2.60373 -3e-06 13.5256 0.5709 0.243624 12.5881 1e-05 8e-06 17.0204 1.39514 0.367595 12.3432 -1.8e-05 -5e-06 16.6791 1.67053 0.291798 25.8329 2.3e-05 7e-06 5.87116 -1.43469 -1.53991 11.7666 -8e-06 -6e-06 -25.602 -11.9523 17.0863 19.7459 -1.48035 6.0001 177.905 -4.97032 -93.9586 11.2841 1.8e-05 -2e-05 -9.2451 -12.429 66.228 33 -1.3e-05 1.9e-05 -79.9701 -2.74375 -3.38652 25.2 3.2e-05 1.1e-05 -47.9973 38.7105 0.613584 19.7461 -1.48036 -6.00008 -166.215 -15.9465 82.0492 11.2841 0 -1e-06 -27.8205 5.59707 -44.1004 33.0001 1.6e-05 -1e-06 -124.611 -11.644 17.5847 25.1998 0.000123 0.000432 -6.98477 -16.1164 15.6144 
-5.36231 157.047 117.026 64.0966 -69.2298 -22.6352 0.103456 1.85784 10.5485 -43.7981 16.8827 -175.918 43.5 -4.2e-05 1e-05 -99.3037 -19.8685 12.284 42.3722 1.9e-05 0 92.2094 9.71734 0.444423 17.3 0 3e-06 21.4546 -1e-06 0.003093 0.103456 1.85782 -10.5485 0.381608 -5.46188 178.097 43.5 -2.7e-05 4e-06 -37.2371 3.89865 4.41096 42.3723 0 1e-05 80.8492 4.51432 -3.57466 17.3 -6e-06 1.7e-05 21.4546 -1.9e-05 -0.003116 6.90197 -2.60373 -3e-06 13.6105 0.652736 0.13997 12.5881 1e-05 8e-06 17.1906 1.53354 0.140753 12.3432 -1.8e-05 -5e-06 16.8484 1.79721 0.056574 25.8329 2.3e-05 7e-06 5.46792 -1.27835 -1.40184 11.7666 -8e-06 -6e-06 -23.7074 -12.0586 18.6038 19.7459 -1.48035 6.0001 178.796 -5.56316 -94.3045 11.2841 1.8e-05 -2e-05 -7.62391 -10.5631 65.7975 33 -1.3e-05 1.9e-05 -79.6125 -3.78833 -2.99748 25.2 3.2e-05 1.1e-05 -48.1244 38.6378 0.974605 19.7461 -1.48036 -6.00008 -166.512 -16.1803 83.5736 11.2841 0 -1e-06 -30.0271 4.50887 -44.1761 33.0001 1.6e-05 -1e-06 -125.021 -11.9514 17.1178 25.1998 0.000123 0.000432 -7.51628 -16.3106 15.7265 
-6.59412 160.915 114.642 67.8705 -69.427 -19.0884 0.103456 1.85784 10.5485 -45.4551 16.9704 -177.078 43.5 -4.2e-05 1e-05 -92.3219 -16.7192 12.1667 42.3722 1.9e-05 1.42109e-14 91.9761 7.09203 1.78722 17.3 1.42109e-14 3e-06 21.4546 -1e-06 0.003093 0.103456 1.85782 -10.5485 5.37175 -4.55135 178.036 43.5 -2.7e-05 4e-06 -26.4656 3.96575 5.70103 42.3723 2.84217e-14 1e-05 70.4994 3.60518 -6.0491 17.3 -6e-06 1.7e-05 21.4546 -1.9e-05 -0.003116 6.90197 -2.60373 -3e-06 13.548 0.741086 -0.00653991 12.5881 1e-05 8e-06 17.0671 1.6705 -0.170657 12.3432 -1.8e-05 -5e-06 16.7242 1.91278 -0.262497 25.8329 2.3e-05 7e-06 5.05085 -0.908165 -1.32929 11.7666 -8e-06 -6e-06 -21.9617 -12.066 20.2543 19.7459 -1.48035 6.0001 179.401 -6.13025 -94.6783 11.2841 1.8e-05 -2e-05 -6.99299 -8.53829 65.4117 33 -1.3e-05 1.9e-05 -79.9791 -5.08473 -2.74803 25.2 3.2e-05 1.1e-05 -48.4759 38.7477 1.25278 19.7461 -1.48036 -6.00008 -166.755 -16.0303 84.2923 11.2841 0 -1e-06 -31.6336 2.77585 -44.8307 33.0001 1.6e-05 -1e-06 -124.909 -11.6156 17.6144 25.1998 0.000123 0.000432 -8.19001 -17.4564 16.4735 
